# AST/ASF file generated using VICON BodyLanguage
# -----------------------------------------------
:version 1.10
:name VICON
:units
  mass 1.0
  length 0.45
  angle deg
:documentation
   .ast/.asf automatically generated from VICON data using
   VICON BodyBuilder and BodyLanguage model FoxedUp or BRILLIANT.MOD
:root
   order TX TY TZ RX RY RZ
   axis XYZ
   position 0 0 0  
   orientation 0 0 0 
:bonedata
  begin
     id 1 
     name lhipjoint
     direction 0.621036 -0.695554 0.361275 
     length 2.46325 
     axis 0 0 0  XYZ
  end
  begin
     id 2 
     name lfemur
     direction 0.34202 -0.939693 0  
     length 6.54784  
     axis 0 0 20  XYZ
    dof rx ry rz
    limits (-160.0 20.0)
           (-70.0 70.0)
           (-60.0 70.0)
  end
  begin
     id 3 
     name ltibia
     direction 0.34202 -0.939693 0   
     length 7.84737   
     axis 0 0 20   XYZ
    dof rx
    limits (-10.0 170.0)
  end
  begin
     id 4 
     name lfoot
     direction 0.0790693 -0.217241 0.97291   
     length 2.59747   
     axis -90 7.62852e-016 20   XYZ
    dof rx rz
    limits (-45.0 90.0)
           (-70.0 20.0)
  end
  begin
     id 5 
     name ltoes
     direction 1.53572e-011 -4.21898e-011 1   
     length 1.29919   
     axis -90 7.62852e-016 20   XYZ
    dof rx
    limits (-90.0 20.0)
  end
  begin
     id 6 
     name rhipjoint
     direction -0.602353 -0.708375 0.367935   
     length 2.41867  
     axis 0 0 0  XYZ 
  end
  begin
     id 7 
     name rfemur
     direction -0.34202 -0.939693 0   
     length 6.92065   
     axis 0 0 -20   XYZ
    dof rx ry rz
    limits (-160.0 20.0)
           (-70.0 70.0)
           (-70.0 60.0)
  end
  begin
     id 8 
     name rtibia
     direction -0.34202 -0.939693 0   
     length 7.88883   
     axis 0 0 -20   XYZ
    dof rx
    limits (-10.0 170.0)
 end
 begin
     id 9 
     name rfoot
     direction -0.0768692 -0.211196 0.974416   
     length 2.43714  
     axis -90 -7.62852e-016 -20   XYZ
    dof rx rz
    limits (-45.0 90.0)
           (-20.0 70.0)
  end
  begin
     id 10 
     name rtoes
     direction -1.53575e-011 -4.21933e-011 1   
     length 1.22113   
     axis -90 -7.62852e-016 -20   XYZ
    dof rx
    limits (-90.0 20.0)
  end
  begin
     id 11 
     name lowerback
     direction 0.0197937 0.98943 -0.143655   
     length 2.16931   
     axis 0 0 0   XYZ
    dof rx ry rz
    limits (-20.0 45.0)
           (-30.0 30.0)
           (-30.0 30.0)
  end
  begin
     id 12 
     name upperback
     direction -0.00183968 0.999975 0.00684288   
     length 2.17221   
     axis 0 0 0   XYZ
    dof rx ry rz
    limits (-20.0 45.0)
           (-30.0 30.0)
           (-30.0 30.0)
  end
  begin
     id 13 
     name thorax
     direction -0.00950244 0.997208 0.0740685   
     length 2.22549   
     axis 0 0 0   XYZ
    dof rx ry rz
    limits (-20.0 45.0)
           (-30.0 30.0)
           (-30.0 30.0)
  end
  begin
     id 14 
     name lowerneck
     direction 0.0218238 0.996215 0.0841425   
     length 1.77269   
     axis 0 0 0   XYZ
    dof rx ry rz
    limits (-20.0 45.0)
           (-30.0 30.0)
           (-30.0 30.0)
  end
  begin
     id 15 
     name upperneck
     direction -0.00430652 0.994214 -0.107332   
     length 1.76534   
     axis 0 0 0   XYZ
    dof rx ry rz
    limits (-20.0 45.0)
           (-30.0 30.0)
           (-30.0 30.0)
  end
  begin
     id 16
     name head
     direction -0.00328946 0.998959 -0.0454998  
     length 1.82634  
     axis 0 0 0   XYZ
    dof rx ry rz
    limits (-20.0 45.0)
           (-30.0 30.0)
           (-30.0 30.0)
  end
  begin
     id 17 
     name lclavicle
     direction 0.970962 0.239191 0.00450212  
     length 3.84872  
     axis 0 0 0   XYZ
    dof ry rz
    limits (-20.0 10.0)
           (0.0 20.0)
  end
  begin
     id 18 
     name lhumerus
     direction 1 -4.48966e-011 5.74696e-028   
     length 5.22771   
     axis 180 -30 -90   XYZ
    dof rx ry rz
    limits (-60.0 90.0)
           (-90.0 90.0)
           (-90.0 90.0)
  end
  begin
     id 19
     name lradius
     direction 1 -4.4896e-011 4.25109e-027   
     length 3.45251   
     axis 180 -30 -90   XYZ
    dof rx
    limits (-10.0 170.0)
  end
  begin
     id 20
     name lwrist
     direction 1 -4.48971e-011 1.15382e-027   
     length 1.72626   
     axis -5.52449e-016 90 90   XYZ
    dof ry
    limits (-180.0 0.0)
 end
  begin
     id 21 
     name lhand
     direction 1 -4.49034e-011 2.30765e-027   
     length 0.552119   
     axis -1.47248e-015 90 90   XYZ
    dof rx rz
    limits (-90.0 90.0)
           (-45.0 45.0)
  end
  begin
     id 22 
     name lfingers
     direction 1 -4.48951e-011 4.61529e-027   
     length 0.445133   
     axis -2.94495e-015 90 90   XYZ
    dof rx
    limits (0.0 90.0)
  end
  begin
     id 23
     name lthumb
     direction 0.707107 -6.34991e-011 0.707107   
     length 0.639124   
     axis -90 45 2.85299e-015   XYZ
    dof rx rz
    limits (-45.0 45.0)
           (-45.0 45.0)
  end
  begin
     id 24 
     name rclavicle
     direction -0.97424 0.222511 -0.0366699   
     length 3.73439  
     axis 0 0 0   XYZ 
    dof ry rz
    limits (-10.0 20.0)
           (-20.0 0.0)
  end
  begin
     id 25 
     name rhumerus
     direction -1 -4.48956e-011 -4.97258e-028  
     length 5.2398   
     axis 180 30 90   XYZ
    dof rx ry rz
    limits (-90.0 60.0)
           (-90.0 90.0)
           (-90.0 90.0)
  end
  begin
     id 26 
     name rradius
     direction -1 -4.4897e-011 -1.72611e-027   
     length 3.48042   
     axis 180 30 90   XYZ
    dof rx
    limits (-10.0 170.0)
  end
  begin
     id 27 
     name rwrist
     direction -1 -4.48976e-011 1.15382e-027   
     length 1.74021   
     axis -5.52449e-016 -90 -90   XYZ
    dof ry
    limits (-180.0 0.0)
  end
  begin
     id 28
     name rhand
     direction -1 -4.48963e-011 2.30765e-027   
     length 0.618713   
     axis -1.47248e-015 -90 -90   XYZ
    dof rx rz
    limits (-90.0 90.0)
           (-45.0 45.0)
  end
  begin
     id 29
     name rfingers
     direction -1 -4.4888e-011 4.61529e-027   
     length 0.498823   
     axis -2.94495e-015 -90 -90   XYZ
    dof rx
    limits (0.0 90.0)
  end
  begin
     id 30
     name rthumb
     direction -0.707107 -6.34968e-011 0.707107   
     length 0.716213   
     axis -90 -45 -2.85299e-015   XYZ
    dof rx rz
    limits (-45.0 45.0)
           (-45.0 45.0)
  end
:hierarchy
  begin
    root lhipjoint rhipjoint lowerback
    lhipjoint lfemur
    lfemur ltibia
    ltibia lfoot
    lfoot ltoes
    rhipjoint rfemur
    rfemur rtibia
    rtibia rfoot
    rfoot rtoes
    lowerback upperback
    upperback thorax
    thorax lowerneck lclavicle rclavicle
    lowerneck upperneck
    upperneck head
    lclavicle lhumerus
    lhumerus lradius
    lradius lwrist
    lwrist lhand lthumb
    lhand lfingers
    rclavicle rhumerus
    rhumerus rradius
    rradius rwrist
    rwrist rhand rthumb
    rhand rfingers
  end

#!OML:ASF G:\JayActor3\Patient Classification 1\Patient 1\Session 5\male.ASF
:FULLY-SPECIFIED
:DEGREES
167
root -35.7583 18.5622 -6.62692 136.593 -86.5964 -109.041
lowerback 17.3986 -0.954516 3.63465
upperback 5.57882 -0.96462 -0.421869
thorax -3.82831 -0.591569 -2.30318
lowerneck 8.52537 0.977454 2.92224
upperneck -27.5537 1.80037 2.03183
head -10.1629 -0.0532237 0.0792053
rclavicle -1.66979e-014 -2.8625e-014
rhumerus -30.4695 -1.02236 -88.2061
rradius 43.2878
rwrist -6.34617
rhand -19.7284 -10.0251
rfingers 7.12502
rthumb 6.60202 -39.9022
lclavicle -1.66979e-014 -2.8625e-014
lhumerus -33.2955 3.9541 82.4844
lradius 35.5642
lwrist 20.758
lhand -18.3727 11.4579
lfingers 7.12502
lthumb 7.9106 41.2898
rfemur -44.6432 3.78019 18.9602
rtibia 27.8735
rfoot 9.20346 -16.4472
rtoes 9.47309
lfemur -36.5866 11.5508 -19.1278
ltibia 13.6485
lfoot 20.8578 -0.422764
ltoes -13.8939
168
root -35.7535 18.5615 -6.62759 137.548 -86.5742 -109.944
lowerback 17.4567 -0.943231 3.62843
upperback 5.58418 -0.950636 -0.432687
thorax -3.85242 -0.585537 -2.31343
lowerneck 8.50716 0.965836 2.91604
upperneck -27.5469 1.78711 2.05539
head -10.1573 -0.0615924 0.0901836
rclavicle 7.55382e-015 3.4191e-014
rhumerus -30.3963 -1.07392 -88.18
rradius 43.2071
rwrist -6.32618
rhand -19.7465 -10.0229
rfingers 7.12502
rthumb 6.58455 -39.9005
lclavicle 7.55382e-015 3.4191e-014
lhumerus -33.2594 3.95362 82.5014
lradius 35.5295
lwrist 20.7247
lhand -18.405 11.4319
lfingers 7.12502
lthumb 7.8795 41.2651
rfemur -44.7454 3.88629 18.9235
rtibia 27.8953
rfoot 9.15712 -16.5411
rtoes 9.60911
lfemur -36.7037 11.5277 -19.165
ltibia 13.7281
lfoot 20.7587 -0.451214
ltoes -14.1794
169
root -35.7489 18.5608 -6.62848 138.23 -86.5516 -110.564
lowerback 17.496 -0.93927 3.6318
upperback 5.58515 -0.944351 -0.437393
thorax -3.87177 -0.583035 -2.32124
lowerneck 8.48922 0.960485 2.9036
upperneck -27.537 1.78064 2.07441
head -10.1506 -0.0654173 0.0998196
rclavicle -5.1684e-015 -3.02153e-014
rhumerus -30.3258 -1.11106 -88.1529
rradius 43.1343
rwrist -6.30708
rhand -19.7596 -10.026
rfingers 7.12502
rthumb 6.57186 -39.904
lclavicle -5.1684e-015 -3.02153e-014
lhumerus -33.2242 3.95214 82.5227
lradius 35.5007
lwrist 20.6889
lhand -18.4183 11.3993
lfingers 7.12502
lthumb 7.86659 41.2329
rfemur -44.8479 3.9716 18.902
rtibia 27.9131
rfoot 9.09282 -16.6352
rtoes 9.76881
lfemur -36.8314 11.5016 -19.1935
ltibia 13.8051
lfoot 20.6692 -0.483118
ltoes -14.48
170
root -35.7445 18.5602 -6.62974 138.731 -86.5289 -110.998
lowerback 17.5234 -0.93704 3.64362
upperback 5.58377 -0.938808 -0.438482
thorax -3.88741 -0.580737 -2.32996
lowerneck 8.46104 0.957074 2.89557
upperneck -27.5234 1.77376 2.08072
head -10.1402 -0.0682487 0.104254
rclavicle -1.07344e-014 0
rhumerus -30.2552 -1.1447 -88.1228
rradius 43.0699
rwrist -6.29448
rhand -19.7663 -10.0293
rfingers 7.12502
rthumb 6.56543 -39.9075
lclavicle -1.07344e-014 0
lhumerus -33.1825 3.93801 82.551
lradius 35.4797
lwrist 20.6581
lhand -18.4157 11.3608
lfingers 7.12502
lthumb 7.86914 41.1943
rfemur -44.95 4.02912 18.899
rtibia 27.93
rfoot 9.04081 -16.7057
rtoes 9.89621
lfemur -36.962 11.4733 -19.2131
ltibia 13.8769
lfoot 20.5827 -0.512673
ltoes -14.7832
171
root -35.74 18.5595 -6.63134 139.13 -86.5079 -111.327
lowerback 17.5458 -0.935806 3.6587
upperback 5.57626 -0.933559 -0.438671
thorax -3.90699 -0.578544 -2.33954
lowerneck 8.42669 0.958344 2.88109
upperneck -27.4992 1.7729 2.08931
head -10.1249 -0.0673192 0.109847
rclavicle -1.35174e-014 -1.51076e-014
rhumerus -30.1983 -1.174 -88.0927
rradius 43.0227
rwrist -6.28334
rhand -19.7726 -10.0326
rfingers 7.12502
rthumb 6.55939 -39.911
lclavicle -1.35174e-014 -1.51076e-014
lhumerus -33.1427 3.91077 82.5825
lradius 35.4668
lwrist 20.6391
lhand -18.4004 11.3307
lfingers 7.12502
lthumb 7.88385 41.1637
rfemur -45.0527 4.06065 18.9101
rtibia 27.9486
rfoot 9.0116 -16.7488
rtoes 9.98511
lfemur -37.092 11.442 -19.2259
ltibia 13.9431
lfoot 20.5017 -0.542326
ltoes -15.0914
172
root -35.7357 18.5589 -6.63305 139.476 -86.4845 -111.616
lowerback 17.5813 -0.931542 3.68421
upperback 5.57184 -0.922529 -0.438586
thorax -3.92987 -0.573697 -2.35585
lowerneck 8.38248 0.955704 2.87234
upperneck -27.4819 1.76399 2.08838
head -10.11 -0.070037 0.112099
rclavicle 2.10712e-014 4.92986e-014
rhumerus -30.1449 -1.20514 -88.0578
rradius 42.9922
rwrist -6.27652
rhand -19.7851 -10.0309
rfingers 7.12502
rthumb 6.54732 -39.9097
lclavicle 2.10712e-014 4.92986e-014
lhumerus -33.0901 3.86112 82.6245
lradius 35.4613
lwrist 20.6407
lhand -18.3811 11.3062
lfingers 7.12502
lthumb 7.90253 41.1385
rfemur -45.1418 4.06463 18.9391
rtibia 27.9704
rfoot 9.02583 -16.7509
rtoes 9.98606
lfemur -37.2003 11.406 -19.2242
ltibia 14.0043
lfoot 20.425 -0.567381
ltoes -15.3971
173
root -35.7312 18.5582 -6.63505 139.811 -86.4654 -111.9
lowerback 17.6234 -0.928936 3.70657
upperback 5.56354 -0.913691 -0.439346
thorax -3.9605 -0.570048 -2.37074
lowerneck 8.36459 0.949431 2.88234
upperneck -27.4876 1.75129 2.07389
head -10.1083 -0.0758489 0.106837
rclavicle -3.53837e-014 -2.26615e-014
rhumerus -30.1051 -1.22169 -88.027
rradius 42.9789
rwrist -6.27423
rhand -19.8016 -10.0262
rfingers 7.12502
rthumb 6.53138 -39.9055
lclavicle -3.53837e-014 -2.26615e-014
lhumerus -33.0435 3.80755 82.6658
lradius 35.4707
lwrist 20.6617
lhand -18.3613 11.2814
lfingers 7.12502
lthumb 7.92164 41.113
rfemur -45.2283 4.05316 18.97
rtibia 27.9964
rfoot 9.06688 -16.731
rtoes 9.9188
lfemur -37.2999 11.3731 -19.2218
ltibia 14.0628
lfoot 20.357 -0.607926
ltoes -15.7236
174
root -35.7262 18.5574 -6.63752 140.191 -86.4471 -112.238
lowerback 17.6762 -0.925313 3.72187
upperback 5.5538 -0.904306 -0.440187
thorax -3.99821 -0.566315 -2.38173
lowerneck 8.33545 0.951405 2.87782
upperneck -27.4835 1.74946 2.068
head -10.1011 -0.0756525 0.105865
rclavicle 6.75868e-015 4.37326e-015
rhumerus -30.074 -1.22205 -87.9993
rradius 42.9793
rwrist -6.27834
rhand -19.8236 -10.023
rfingers 7.12502
rthumb 6.5101 -39.903
lclavicle 6.75868e-015 4.37326e-015
lhumerus -33.0007 3.75143 82.708
lradius 35.4972
lwrist 20.6998
lhand -18.3463 11.261
lfingers 7.12502
lthumb 7.93609 41.092
rfemur -45.3121 4.04289 18.9973
rtibia 28.0276
rfoot 9.12973 -16.696
rtoes 9.74615
lfemur -37.3901 11.3448 -19.2149
ltibia 14.1208
lfoot 20.2998 -0.644766
ltoes -16.0084
175
root -35.7208 18.5563 -6.64038 140.62 -86.4296 -112.637
lowerback 17.7381 -0.922082 3.72844
upperback 5.54629 -0.896857 -0.441244
thorax -4.03841 -0.563664 -2.38753
lowerneck 8.3102 0.954053 2.8768
upperneck -27.4867 1.74907 2.06128
head -10.0972 -0.0754341 0.103895
rclavicle -2.62396e-014 -4.81059e-014
rhumerus -30.0431 -1.2013 -87.9763
rradius 42.9874
rwrist -6.28423
rhand -19.8471 -10.02
rfingers 7.12502
rthumb 6.48741 -39.9007
lclavicle -2.62396e-014 -4.81059e-014
lhumerus -32.96 3.70123 82.7472
lradius 35.5406
lwrist 20.7495
lhand -18.3348 11.2358
lfingers 7.12502
lthumb 7.94725 41.0664
rfemur -45.3919 4.035 19.0205
rtibia 28.0675
rfoot 9.21289 -16.6438
rtoes 9.44812
lfemur -37.4682 11.3252 -19.2054
ltibia 14.178
lfoot 20.256 -0.684005
ltoes -16.2524
176
root -35.7147 18.5549 -6.64402 141.217 -86.4127 -113.215
lowerback 17.8105 -0.916082 3.71667
upperback 5.53858 -0.888762 -0.444195
thorax -4.08417 -0.560859 -2.38498
lowerneck 8.29719 0.960028 2.87521
upperneck -27.4985 1.75515 2.05831
head -10.0989 -0.0729308 0.102655
rclavicle 1.31198e-014 2.50469e-014
rhumerus -30.0145 -1.15874 -87.9595
rradius 42.9988
rwrist -6.30004
rhand -19.8766 -10.0126
rfingers 7.12502
rthumb 6.45899 -39.8941
lclavicle 1.31198e-014 2.50469e-014
lhumerus -32.9273 3.65478 82.7822
lradius 35.6029
lwrist 20.8028
lhand -18.3337 11.194
lfingers 7.12502
lthumb 7.94829 41.0246
rfemur -45.4708 4.04534 19.0297
rtibia 28.1203
rfoot 9.30564 -16.5794
rtoes 9.0066
lfemur -37.5329 11.308 -19.1912
ltibia 14.2336
lfoot 20.2154 -0.707063
ltoes -16.4426
177
root -35.7081 18.5529 -6.64849 141.93 -86.3965 -113.917
lowerback 17.8862 -0.906606 3.69104
upperback 5.53386 -0.878879 -0.449822
thorax -4.12833 -0.557198 -2.37778
lowerneck 8.26748 0.973018 2.85939
upperneck -27.4972 1.7708 2.06688
head -10.0928 -0.0652868 0.106845
rclavicle -1.51076e-014 -3.65764e-014
rhumerus -29.9826 -1.1086 -87.9467
rradius 43.0117
rwrist -6.30842
rhand -19.8954 -10.0096
rfingers 7.12502
rthumb 6.44079 -39.8916
lclavicle -1.51076e-014 -3.65764e-014
lhumerus -32.8941 3.60669 82.8126
lradius 35.6771
lwrist 20.8523
lhand -18.3407 11.1503
lfingers 7.12502
lthumb 7.94149 40.9811
rfemur -45.5486 4.07896 19.0246
rtibia 28.1887
rfoot 9.38046 -16.5139
rtoes 8.45664
lfemur -37.5855 11.2912 -19.1703
ltibia 14.2862
lfoot 20.1792 -0.719152
ltoes -16.5972
